<svg width="27" height="29" viewBox="0 0 27 29" fill="none" xmlns="http://www.w3.org/2000/svg">
<path d="M6 7.75C6 7.47386 6.22386 7.25 6.5 7.25H20.5C20.7761 7.25 21 7.47386 21 7.75V10.4212C21 10.8626 21.5302 11.0875 21.8475 10.7807L26.6281 6.15949C26.8314 5.96295 26.8314 5.63705 26.6281 5.44051L21.8475 0.81926C21.5302 0.512492 21 0.737377 21 1.17875V3.85C21 4.12614 20.7761 4.35 20.5 4.35H3.5C3.22386 4.35 3 4.57386 3 4.85V12.55C3 12.8261 3.22386 13.05 3.5 13.05H5.5C5.77614 13.05 6 12.8261 6 12.55V7.75ZM21 21.25C21 21.5261 20.7761 21.75 20.5 21.75H6.5C6.22386 21.75 6 21.5261 6 21.25V18.5788C6 18.1374 5.46983 17.9125 5.15249 18.2193L0.37189 22.8405C0.168572 23.037 0.168572 23.363 0.371891 23.5595L5.15249 28.1807C5.46984 28.4875 6 28.2626 6 27.8212V25.15C6 24.8739 6.22386 24.65 6.5 24.65H23.5C23.7761 24.65 24 24.4261 24 24.15V16.45C24 16.1739 23.7761 15.95 23.5 15.95H21.5C21.2239 15.95 21 16.1739 21 16.45V21.25Z" fill="white"/>
</svg>
