<svg width="27" height="27" viewBox="0 0 27 27" fill="none" xmlns="http://www.w3.org/2000/svg">
<path d="M27 0.5C27 0.223858 26.7761 0 26.5 0H18.9259C18.4804 0 18.2573 0.538571 18.5723 0.853554L20.8078 3.08909C21.003 3.2843 21.0031 3.60077 20.808 3.79605L0.353272 24.2671C0.158143 24.4624 0.158205 24.7788 0.353413 24.974L2.02596 26.6466C2.22117 26.8418 2.53764 26.8419 2.73293 26.6467L23.2039 6.19202C23.3992 5.99689 23.7157 5.99696 23.9109 6.19216L26.1464 8.4277C26.4614 8.74268 27 8.5196 27 8.07414V0.5ZM2.73293 0.352871C2.53761 0.157931 2.22129 0.158083 2.02616 0.353212L0.353553 2.02582C0.158291 2.22108 0.158291 2.53767 0.353553 2.73293L8.37207 10.7514C8.56684 10.9462 8.88246 10.9468 9.07792 10.7527L10.7642 9.07827C10.9608 8.88308 10.9612 8.56527 10.7651 8.36957L2.73293 0.352871ZM26.5 27C26.7761 27 27 26.7761 27 26.5V18.9259C27 18.4804 26.4614 18.2573 26.1464 18.5723L23.9111 20.8077C23.7158 21.003 23.3992 21.003 23.2039 20.8077L18.6292 16.2329C18.4339 16.0377 18.1173 16.0377 17.9221 16.2329L16.2498 17.9052C16.0545 18.1005 16.0545 18.417 16.2498 18.6123L20.8246 23.1871C21.0198 23.3823 21.0198 23.6989 20.8246 23.8942L18.5723 26.1464C18.2573 26.4614 18.4804 27 18.9259 27H26.5Z" fill="white"/>
</svg>
