<svg width="25" height="24" viewBox="0 0 25 24" fill="none" xmlns="http://www.w3.org/2000/svg">
<path d="M1 7.8951C0.447715 7.8951 0 8.34281 0 8.8951V15.1049C0 15.6572 0.447715 16.1049 1 16.1049H5.14571C5.40834 16.1049 5.66043 16.2082 5.84752 16.3925L10.7982 21.2698C11.4303 21.8925 12.5 21.4448 12.5 20.5575V3.44254C12.5 2.55523 11.4303 2.10745 10.7982 2.73017L5.84752 7.60746C5.66043 7.79178 5.40834 7.8951 5.14571 7.8951H1ZM18.75 12C18.75 10.1531 17.9215 8.49827 16.6123 7.37207C16.0516 6.88973 15.2778 7.3555 15.2778 8.09512V15.9069C15.2778 16.6477 16.0537 17.1133 16.6144 16.6292C17.9224 15.5 18.75 13.8459 18.75 12ZM16.4811 0.332789C15.8731 0.131658 15.2778 0.608213 15.2778 1.2486V2.07662C15.2778 2.52055 15.5726 2.90643 15.9878 3.06363C19.6326 4.44368 22.2222 7.92258 22.2222 12C22.2222 16.0774 19.6326 19.5563 15.9878 20.9364C15.5726 21.0936 15.2778 21.4794 15.2778 21.9234V22.7514C15.2778 23.3918 15.8731 23.8683 16.4811 23.6672C21.4296 22.0302 25 17.432 25 12C25 6.56799 21.4296 1.96985 16.4811 0.332789Z" fill="#474C52"/>
<path d="M1 7.8951C0.447715 7.8951 0 8.34281 0 8.8951V15.1049C0 15.6572 0.447715 16.1049 1 16.1049H5.14571C5.40834 16.1049 5.66043 16.2082 5.84752 16.3925L10.7982 21.2698C11.4303 21.8925 12.5 21.4448 12.5 20.5575V3.44254C12.5 2.55523 11.4303 2.10745 10.7982 2.73017L5.84752 7.60746C5.66043 7.79178 5.40834 7.8951 5.14571 7.8951H1ZM18.75 12C18.75 10.1531 17.9215 8.49827 16.6123 7.37207C16.0516 6.88973 15.2778 7.3555 15.2778 8.09512V15.9069C15.2778 16.6477 16.0537 17.1133 16.6144 16.6292C17.9224 15.5 18.75 13.8459 18.75 12ZM16.4811 0.332789C15.8731 0.131658 15.2778 0.608213 15.2778 1.2486V2.07662C15.2778 2.52055 15.5726 2.90643 15.9878 3.06363C19.6326 4.44368 22.2222 7.92258 22.2222 12C22.2222 16.0774 19.6326 19.5563 15.9878 20.9364C15.5726 21.0936 15.2778 21.4794 15.2778 21.9234V22.7514C15.2778 23.3918 15.8731 23.8683 16.4811 23.6672C21.4296 22.0302 25 17.432 25 12C25 6.56799 21.4296 1.96985 16.4811 0.332789Z" fill="white"/>
</svg>
